<svg fill="none" height="364" viewBox="0 0 233 364" width="233" xmlns="http://www.w3.org/2000/svg" xmlns:xlink="http://www.w3.org/1999/xlink"><linearGradient id="a" gradientUnits="userSpaceOnUse" x1="120.598" x2="120.598" y1="2.50012" y2="359.321"><stop offset="0" stop-color="#fff"/><stop offset="1" stop-color="#fff" stop-opacity="0"/></linearGradient><g clip-rule="evenodd" fill-rule="evenodd"><path d="m190.437 93.4288c-7.909-6.8702-21.092-15.0959-37.884-20.7876-1.263 42.6498-11.711 110.3348-41.77 212.0248 68.52-11.235 180.379-65.212 79.654-191.2372zm-170.6128 73.3882c-2.6636 37.899 10.5531 86.778 60.5054 142.51l-6.5645 5.884 1.5814-.659c5.6749 13.637 6.9293 24.916 6.7418 32.838-.0937 3.958-.5471 7.071-.9843 9.214-.0515.252-.1028.491-.1533.717h73.5493v4h-76.1642-2.8561l.975-2.679.0006-.002.0005-.001.0006-.002.0065-.019c.0078-.022.0211-.062.0391-.117.0361-.111.0912-.286.1595-.525.1366-.477.3262-1.206.5232-2.172.3939-1.93.817-4.807.9047-8.508.1718-7.257-.9448-17.712-6.1311-30.466l-4.2879 3.843c-52.38-58.44-67.852261-111.68-64.80438-155.048 3.02854-43.092 24.27968-75.3207 43.43798-92.0308l11.1743 12.8116c-16.1105 14.0522-34.9712 42.2372-37.6541 80.4112z" fill="#000"/><path d="m190.437 93.4288c-7.909-6.8702-21.092-15.0959-37.884-20.7876-1.263 42.6498-11.711 110.3348-41.77 212.0248 68.52-11.235 180.379-65.212 79.654-191.2372zm-170.6128 73.3882c-2.6636 37.899 10.5531 86.778 60.5054 142.51l-6.5645 5.884 1.5814-.659c5.6749 13.637 6.9293 24.916 6.7418 32.838-.0937 3.958-.5471 7.071-.9843 9.214-.0515.252-.1028.491-.1533.717h73.5493v4h-76.1642-2.8561l.975-2.679.0006-.002.0005-.001.0006-.002.0065-.019c.0078-.022.0211-.062.0391-.117.0361-.111.0912-.286.1595-.525.1366-.477.3262-1.206.5232-2.172.3939-1.93.817-4.807.9047-8.508.1718-7.257-.9448-17.712-6.1311-30.466l-4.2879 3.843c-52.38-58.44-67.852261-111.68-64.80438-155.048 3.02854-43.092 24.27968-75.3207 43.43798-92.0308l11.1743 12.8116c-16.1105 14.0522-34.9712 42.2372-37.6541 80.4112z" fill="url(#a)"/><path d="m190.437 93.4288c-7.909-6.8702-21.092-15.0959-37.884-20.7876-1.263 42.6498-11.711 110.3348-41.77 212.0248 68.52-11.235 180.379-65.212 79.654-191.2372zm-170.6128 73.3882c-2.6636 37.899 10.5531 86.778 60.5054 142.51l-6.5645 5.884 1.5814-.659c5.6749 13.637 6.9293 24.916 6.7418 32.838-.0937 3.958-.5471 7.071-.9843 9.214-.0515.252-.1028.491-.1533.717h73.5493v4h-76.1642-2.8561l.975-2.679.0006-.002.0005-.001.0006-.002.0065-.019c.0078-.022.0211-.062.0391-.117.0361-.111.0912-.286.1595-.525.1366-.477.3262-1.206.5232-2.172.3939-1.93.817-4.807.9047-8.508.1718-7.257-.9448-17.712-6.1311-30.466l-4.2879 3.843c-52.38-58.44-67.852261-111.68-64.80438-155.048 3.02854-43.092 24.27968-75.3207 43.43798-92.0308l11.1743 12.8116c-16.1105 14.0522-34.9712 42.2372-37.6541 80.4112z" fill="url(#a)"/></g><path d="m152.553 72.6412.642-1.8942-2.561-.8681-.08 2.703zm37.884 20.7876 1.562-1.2486-.114-.142-.137-.1192zm-79.654 191.2372-1.918-.567-.903 3.057 3.145-.516zm-30.4534 24.661 1.3349 1.489 1.4893-1.335-1.3349-1.489zm-60.5054-142.51-1.9951-.14zm53.9409 148.394-1.3349-1.49 2.1034 3.336zm1.5814-.659 1.8465-.768-.7685-1.847-1.8464.769zm6.7418 32.838 1.9994.048zm-.9843 9.214-1.9597-.4zm-.1533.717-1.9517-.437-.5454 2.437h2.4971zm73.5493 0h2v-2h-2zm0 4v2h2v-2zm-79.0203 0-1.8795-.684-.9767 2.684h2.8562zm.975-2.679 1.8795.684.0023-.007zm.0006-.002-1.8793-.684-.0025.007zm.0005-.001 1.8793.684.0012-.004zm.0006-.002 1.8806.681.0048-.014.0046-.013zm.0065-.019 1.8899.655.0007-.002zm.0391-.117-1.9017-.619zm.1595-.525 1.9227.55zm.5232-2.172 1.9596.4zm.9047-8.508-1.9995-.048zm-6.1311-30.466 1.8527-.753-1.0708-2.634-2.1168 1.898zm-4.2879 3.843-1.4893 1.335 1.3348 1.489 1.4894-1.334zm-64.80438-155.048-1.995081-.14zm43.43798-92.0308 1.5072-1.3146-1.3146-1.5072-1.5072 1.3146zm11.1743 12.8116 1.3146 1.5072 1.5073-1.3146-1.3147-1.5073zm95.0747-13.7646-.642 1.8941 2.561.8681.08-2.703zm-10.162-59.8901 1.411-1.4178-.086-.0857-.096-.0746zm9.52 61.7842c16.557 5.6122 29.51 13.7112 37.214 20.4034l2.623-3.0197c-8.113-7.0483-21.527-15.4007-38.553-21.172zm-39.21 210.6977c30.086-101.782 40.581-169.647 41.851-212.5326l-3.998-.1185c-1.256 42.4151-11.657 109.9181-41.689 211.5171zm76.173-190.5555c25.041 31.3305 36.708 57.9865 39.259 80.4445 2.543 22.395-3.958 40.793-15.632 55.741-23.476 30.058-67.957 46.241-102.041 51.83l.647 3.947c34.436-5.647 80.144-22.07 104.546-53.315 12.265-15.704 19.125-35.133 16.454-58.654-2.664-23.459-14.786-50.809-40.108-82.4908zm-107.0551 213.3145c-49.6665-55.413-62.618-103.778-59.9996-141.035l-3.9902-.28c-2.7088 38.542 10.773 87.934 61.0112 143.985zm-6.7189 8.708 6.5645-5.884-2.6698-2.979-6.5645 5.884zm-.5219-3.994-1.5814.658 1.5369 3.693 1.5813-.658zm9.5096 34.732c.1938-8.185-1.1061-19.745-6.8947-33.654l-3.693 1.537c5.5612 13.363 6.7702 24.363 6.5888 32.022zm-1.0241 9.566c.459-2.25.9274-5.481 1.0241-9.566l-3.9989-.095c-.0906 3.83-.5289 6.824-.9445 8.861zm-.1612.754c.0532-.238.1071-.489.1612-.754l-3.9193-.8c-.0489.24-.0976.467-.1453.68zm71.5976-2.437h-73.5493v4h73.5493zm2 6v-4h-4v4zm-78.1642 2h76.1642v-4h-76.1642zm-2.8561 0h2.8561v-4h-2.8561zm-.9044-5.363-.9751 2.679 3.7589 1.368.975-2.679zm-.0018.005-.0005.001 3.7635 1.355.0006-.002zm.003-.009-.0005.002 3.7586 1.368.0005-.001zm-.0006.002-.0006.002 3.761 1.361.0007-.001zm-.003.008-.0064.019 3.7799 1.308.0064-.018zm.0274-.082c-.0144.044-.024.072-.028.084l3.7812 1.305c.0116-.034.0286-.084.0503-.151zm.1385-.457c-.0616.215-.1096.368-.1385.457l3.8034 1.238c.0434-.133.1055-.331.1805-.594zm.4863-2.02c-.1862.912-.3633 1.59-.4863 2.02l3.8454 1.101c.1502-.524.3523-1.303.5601-2.322zm.8648-8.157c-.0846 3.574-.4926 6.332-.8648 8.157l3.9192.799c.4156-2.037.8539-5.031.9445-8.861zm-5.9843-29.665c5.077 12.485 6.1501 22.667 5.9843 29.665l3.9989.095c.1779-7.514-.9822-18.244-6.2778-31.266zm-1.1003 4.58 4.2879-3.844-2.6698-2.978-4.2879 3.843zm-68.134361-156.678c-3.093109 44.011 12.644661 97.765 65.310161 156.523l2.9786-2.67c-52.0946-58.121-67.30125-110.849-64.2986-153.572zm44.118461-93.398c-19.5168 17.0227-41.04924 49.727-44.118461 93.398l3.990161.281c2.98787-42.514 23.9576-74.2671 42.7575-90.6645zm13.9961 13.0041-11.1743-12.8115-3.0144 2.6293 11.1743 12.8115zm-37.1662 81.8659c2.6422-37.596 21.2218-65.305 36.9736-79.044l-2.6292-3.0145c-16.4693 14.3647-35.611 43.0255-38.3346 81.7785zm31.152-84.9661c37.5727-18.9608 72.7157-16.3448 98.9397-7.4556l1.284-3.7883c-27.045-9.1675-63.3257-11.8569-102.0258 7.6729zm101.5807-9.2905c.537-18.102-.569-31.8045-2.562-41.7537-1.976-9.8607-4.88-16.3218-8.188-19.6134l-2.821 2.8356c2.441 2.4294 5.152 7.9109 7.087 17.5637 1.916 9.5643 3.017 22.9464 2.486 40.8493zm-10.932-61.5274c-11.239-8.75003-19.294-11.408651-24.968-10.50693-5.933.94267-8.55 5.60107-9.152 9.37503l3.951.63c.423-2.65258 2.127-5.46649 5.828-6.05459 3.959-.62906 10.85 1.12308 21.884 9.71269zm-.334 309.28c-17.721 6.769-29.863 9.884-37.802 11.052-3.972.584-6.8373.672-8.7929.509-.9775-.082-1.6871-.223-2.1748-.374-.5114-.159-.6664-.295-.6554-.285l-2.7218 2.931c.5944.552 1.3738.92 2.19 1.173.8398.261 1.8511.443 3.0298.541 2.3569.196 5.5461.074 9.7071-.538 8.328-1.224 20.769-4.443 38.648-11.273zm0 14c-17.721 6.769-29.863 9.884-37.802 11.052-3.972.584-6.8373.672-8.7929.509-.9775-.082-1.6871-.223-2.1748-.374-.5114-.159-.6664-.295-.6554-.285l-2.7218 2.931c.5944.552 1.3738.92 2.19 1.173.8398.261 1.8511.443 3.0298.541 2.3569.196 5.5461.074 9.7071-.538 8.328-1.224 20.769-4.443 38.648-11.273z" fill="#000"/></svg>